<?xml version="1.0" standalone="no"?>
<!DOCTYPE svg PUBLIC "-//W3C//DTD SVG 20010904//EN"
 "http://www.w3.org/TR/2001/REC-SVG-20010904/DTD/svg10.dtd">
<svg version="1.0" xmlns="http://www.w3.org/2000/svg"
 width="100.000000pt" height="100.000000pt" viewBox="0 0 100.000000 100.000000"
 preserveAspectRatio="xMidYMid meet">

<g transform="translate(0.000000,100.000000) scale(0.100000,-0.100000)"
fill="#000000" stroke="none">
<path d="M440 930 c-84 -11 -130 -26 -195 -65 -108 -64 -179 -164 -193 -273
-16 -122 21 -225 116 -318 28 -29 52 -59 52 -68 0 -9 -12 -39 -26 -67 -34 -67
-28 -79 30 -68 55 10 102 33 138 66 14 14 31 22 37 18 6 -3 51 -6 99 -6 190 0
341 86 423 241 21 39 24 59 24 150 0 96 -2 110 -28 159 -60 113 -202 213 -324
226 -32 3 -67 7 -78 9 -11 2 -45 0 -75 -4z m252 -67 c89 -42 163 -112 199
-188 61 -128 30 -276 -80 -378 -28 -27 -82 -63 -119 -80 -64 -30 -73 -32 -194
-33 -120 -1 -128 -3 -160 -28 -37 -28 -118 -60 -118 -47 0 5 7 25 15 44 26 63
20 84 -39 138 -34 31 -67 74 -85 111 -64 126 -33 278 76 380 98 90 178 119
328 115 100 -2 116 -5 177 -34z"/>
<path d="M265 669 c-16 -25 20 -29 241 -27 196 3 229 5 229 18 0 13 -34 15
-232 18 -161 2 -234 -1 -238 -9z"/>
<path d="M185 549 c-16 -25 18 -29 191 -27 151 3 179 5 179 18 0 13 -28 15
-182 18 -125 2 -184 -1 -188 -9z"/>
<path d="M645 550 c-14 -23 13 -31 91 -28 62 2 79 6 79 18 0 12 -17 16 -82 18
-52 2 -84 -1 -88 -8z"/>
<path d="M265 429 c-16 -25 20 -29 241 -27 196 3 229 5 229 18 0 13 -34 15
-232 18 -161 2 -234 -1 -238 -9z"/>
</g>
</svg>
